<svg xmlns="http://www.w3.org/2000/svg" xlink="http://www.w3.org/1999/xlink" width="0" height="0" style="display:none;"><symbol viewBox="0 0 24 24" id="dashboard-line"><path fill="none" d="M0 0h24v24H0z"/><path d="M13 21V11h8v10h-8zM3 13V3h8v10H3zm6-2V5H5v6h4zM3 21v-6h8v6H3zm2-2h4v-2H5v2zm10 0h4v-6h-4v6zM13 3h8v6h-8V3zm2 2v2h4V5h-4z"/></symbol><symbol viewBox="0 0 24 24" id="arrow-left-line"><path fill="none" d="M0 0h24v24H0z"/><path d="M7.828 11H20v2H7.828l5.364 5.364-1.414 1.414L4 12l7.778-7.778 1.414 1.414z"/></symbol><symbol viewBox="0 0 24 24" id="file-text-line"><path fill="none" d="M0 0h24v24H0z"/><path d="M21 8v12.993A1 1 0 0 1 20.007 22H3.993A.993.993 0 0 1 3 21.008V2.992C3 2.455 3.449 2 4.002 2h10.995L21 8zm-2 1h-5V4H5v16h14V9zM8 7h3v2H8V7zm0 4h8v2H8v-2zm0 4h8v2H8v-2z"/></symbol><symbol viewBox="0 0 24 24" id="search-line"><path fill="none" d="M0 0h24v24H0z"/><path d="M18.031 16.617l4.283 4.282-1.415 1.415-4.282-4.283A8.96 8.96 0 0 1 11 20c-4.968 0-9-4.032-9-9s4.032-9 9-9 9 4.032 9 9a8.96 8.96 0 0 1-1.969 5.617zm-2.006-.742A6.977 6.977 0 0 0 18 11c0-3.868-3.133-7-7-7-3.868 0-7 3.132-7 7 0 3.867 3.132 7 7 7a6.977 6.977 0 0 0 4.875-1.975l.15-.15z"/></symbol><symbol viewBox="0 0 24 24" id="map-pin-2-line"><path fill="none" d="M0 0h24v24H0z"/><path d="M12 23.728l-6.364-6.364a9 9 0 1 1 12.728 0L12 23.728zm4.95-7.778a7 7 0 1 0-9.9 0L12 20.9l4.95-4.95zM12 13a2 2 0 1 1 0-4 2 2 0 0 1 0 4z"/></symbol><symbol viewBox="0 0 24 24" id="image-line"><path fill="none" d="M0 0h24v24H0z"/><path d="M4.828 21l-.02.02-.021-.02H2.992A.993.993 0 0 1 2 20.007V3.993A1 1 0 0 1 2.992 3h18.016c.548 0 .992.445.992.993v16.014a1 1 0 0 1-.992.993H4.828zM20 15V5H4v14L14 9l6 6zm0 2.828l-6-6L6.828 19H20v-1.172zM8 11a2 2 0 1 1 0-4 2 2 0 0 1 0 4z"/></symbol><symbol viewBox="0 0 24 24" id="group-line"><path fill="none" d="M0 0h24v24H0z"/><path d="M2 22a8 8 0 1 1 16 0h-2a6 6 0 1 0-12 0H2zm8-9c-3.315 0-6-2.685-6-6s2.685-6 6-6 6 2.685 6 6-2.685 6-6 6zm0-2c2.21 0 4-1.79 4-4s-1.79-4-4-4-4 1.79-4 4 1.79 4 4 4zm8.284 3.703A8.002 8.002 0 0 1 23 22h-2a6.001 6.001 0 0 0-3.537-5.473l.82-1.824zm-.688-11.29A5.5 5.5 0 0 1 21 8.5a5.499 5.499 0 0 1-5 5.478v-2.013a3.5 3.5 0 0 0 1.041-6.609l.555-1.943z"/></symbol><symbol viewBox="0 0 24 24" id="user-add-line"><path fill="none" d="M0 0h24v24H0z"/><path d="M14 14.252v2.09A6 6 0 0 0 6 22l-2-.001a8 8 0 0 1 10-7.748zM12 13c-3.315 0-6-2.685-6-6s2.685-6 6-6 6 2.685 6 6-2.685 6-6 6zm0-2c2.21 0 4-1.79 4-4s-1.79-4-4-4-4 1.79-4 4 1.79 4 4 4zm6 6v-3h2v3h3v2h-3v3h-2v-3h-3v-2h3z"/></symbol><symbol viewBox="0 0 24 24" id="store-2-line"><path fill="none" d="M0 0h24v24H0z"/><path d="M21 13.242V20h1v2H2v-2h1v-6.758A4.496 4.496 0 0 1 1 9.5c0-.827.224-1.624.633-2.303L4.345 2.5a1 1 0 0 1 .866-.5H18.79a1 1 0 0 1 .866.5l2.702 4.682A4.496 4.496 0 0 1 21 13.242zm-2 .73a4.496 4.496 0 0 1-3.75-1.36A4.496 4.496 0 0 1 12 14.001a4.496 4.496 0 0 1-3.25-1.387A4.496 4.496 0 0 1 5 13.973V20h14v-6.027zM5.789 4L3.356 8.213a2.5 2.5 0 0 0 4.466 2.216c.335-.837 1.52-.837 1.856 0a2.5 2.5 0 0 0 4.644 0c.335-.837 1.52-.837 1.856 0a2.5 2.5 0 1 0 4.457-2.232L18.21 4H5.79z"/></symbol><symbol viewBox="0 0 24 24" id="push-pin-line"><path fill="none" d="M0 0h24v24H0z"/><path d="M13.828 1.686l8.486 8.486-1.415 1.414-.707-.707-4.242 4.242-.707 3.536-1.415 1.414-4.242-4.243-4.95 4.95-1.414-1.414 4.95-4.95-4.243-4.242 1.414-1.415L8.88 8.05l4.242-4.242-.707-.707 1.414-1.415zm.708 3.536l-4.671 4.67-2.822.565 6.5 6.5.564-2.822 4.671-4.67-4.242-4.243z"/></symbol><symbol viewBox="0 0 24 24" id="profile-line"><path fill="none" d="M0 0h24v24H0z"/><path d="M2 3.993A1 1 0 0 1 2.992 3h18.016c.548 0 .992.445.992.993v16.014a1 1 0 0 1-.992.993H2.992A.993.993 0 0 1 2 20.007V3.993zM4 5v14h16V5H4zm2 2h6v6H6V7zm2 2v2h2V9H8zm-2 6h12v2H6v-2zm8-8h4v2h-4V7zm0 4h4v2h-4v-2z"/></symbol><symbol viewBox="0 0 24 24" id="file-user-line"><path fill="none" d="M0 0h24v24H0z"/><path d="M15 4H5v16h14V8h-4V4zM3 2.992C3 2.444 3.447 2 3.999 2H16l5 5v13.993A1 1 0 0 1 20.007 22H3.993A1 1 0 0 1 3 21.008V2.992zm9 8.508a2.5 2.5 0 1 1 0-5 2.5 2.5 0 0 1 0 5zM7.527 17a4.5 4.5 0 0 1 8.946 0H7.527z"/></symbol><symbol viewBox="0 0 24 24" id="delete-bin-line"><path fill="none" d="M0 0h24v24H0z"/><path d="M17 6h5v2h-2v13a1 1 0 0 1-1 1H5a1 1 0 0 1-1-1V8H2V6h5V3a1 1 0 0 1 1-1h8a1 1 0 0 1 1 1v3zm1 2H6v12h12V8zm-9 3h2v6H9v-6zm4 0h2v6h-2v-6zM9 4v2h6V4H9z"/></symbol><symbol viewBox="0 0 24 24" id="home-line"><path fill="none" d="M0 0h24v24H0z"/><path d="M21 20a1 1 0 0 1-1 1H4a1 1 0 0 1-1-1V9.49a1 1 0 0 1 .386-.79l8-6.222a1 1 0 0 1 1.228 0l8 6.222a1 1 0 0 1 .386.79V20zm-2-1V9.978l-7-5.444-7 5.444V19h14z"/></symbol><symbol viewBox="0 0 24 24" id="user-line"><path fill="none" d="M0 0h24v24H0z"/><path d="M4 22a8 8 0 1 1 16 0h-2a6 6 0 1 0-12 0H4zm8-9c-3.315 0-6-2.685-6-6s2.685-6 6-6 6 2.685 6 6-2.685 6-6 6zm0-2c2.21 0 4-1.79 4-4s-1.79-4-4-4-4 1.79-4 4 1.79 4 4 4z"/></symbol><symbol viewBox="0 0 24 24" id="add-line"><path fill="none" d="M0 0h24v24H0z"/><path d="M11 11V5h2v6h6v2h-6v6h-2v-6H5v-2z"/></symbol><symbol viewBox="0 0 24 24" id="subtract-line"><path fill="none" d="M0 0h24v24H0z"/><path d="M5 11h14v2H5z"/></symbol><symbol viewBox="0 0 24 24" id="more-2-line"><path fill="none" d="M0 0h24v24H0z"/><path d="M12 3c-.825 0-1.5.675-1.5 1.5S11.175 6 12 6s1.5-.675 1.5-1.5S12.825 3 12 3zm0 15c-.825 0-1.5.675-1.5 1.5S11.175 21 12 21s1.5-.675 1.5-1.5S12.825 18 12 18zm0-7.5c-.825 0-1.5.675-1.5 1.5s.675 1.5 1.5 1.5 1.5-.675 1.5-1.5-.675-1.5-1.5-1.5z"/></symbol><symbol viewBox="0 0 24 24" id="question-line"><path fill="none" d="M0 0h24v24H0z"/><path d="M12 22C6.477 22 2 17.523 2 12S6.477 2 12 2s10 4.477 10 10-4.477 10-10 10zm0-2a8 8 0 1 0 0-16 8 8 0 0 0 0 16zm-1-5h2v2h-2v-2zm2-1.645V14h-2v-1.5a1 1 0 0 1 1-1 1.5 1.5 0 1 0-1.471-1.794l-1.962-.393A3.501 3.501 0 1 1 13 13.355z"/></symbol><symbol viewBox="0 0 24 24" id="money-dollar-circle-line"><path fill="none" d="M0 0h24v24H0z"/><path d="M12 22C6.477 22 2 17.523 2 12S6.477 2 12 2s10 4.477 10 10-4.477 10-10 10zm0-2a8 8 0 1 0 0-16 8 8 0 0 0 0 16zm-3.5-6H14a.5.5 0 1 0 0-1h-4a2.5 2.5 0 1 1 0-5h1V6h2v2h2.5v2H10a.5.5 0 1 0 0 1h4a2.5 2.5 0 1 1 0 5h-1v2h-2v-2H8.5v-2z"/></symbol><symbol viewBox="0 0 24 24" id="calendar-line"><path fill="none" d="M0 0h24v24H0z"/><path d="M17 3h4a1 1 0 0 1 1 1v16a1 1 0 0 1-1 1H3a1 1 0 0 1-1-1V4a1 1 0 0 1 1-1h4V1h2v2h6V1h2v2zm-2 2H9v2H7V5H4v4h16V5h-3v2h-2V5zm5 6H4v8h16v-8z"/></symbol><symbol viewBox="0 0 24 24" id="menu-line"><path fill="none" d="M0 0h24v24H0z"/><path d="M3 4h18v2H3V4zm0 7h18v2H3v-2zm0 7h18v2H3v-2z"/></symbol><symbol viewBox="0 0 24 24" id="upload-line"><path fill="none" d="M0 0h24v24H0z"/><path d="M3 19h18v2H3v-2zM13 5.828V17h-2V5.828L4.929 11.9l-1.414-1.414L12 2l8.485 8.485-1.414 1.414L13 5.83z"/></symbol><symbol viewBox="0 0 24 24" id="close-line"><path fill="none" d="M0 0h24v24H0z"/><path d="M12 10.586l4.95-4.95 1.414 1.414-4.95 4.95 4.95 4.95-1.414 1.414-4.95-4.95-4.95 4.95-1.414-1.414 4.95-4.95-4.95-4.95L7.05 5.636z"/></symbol><symbol viewBox="0 0 24 24" id="filter-line"><path fill="none" d="M0 0h24v24H0z"/><path d="M9 13.5L4 6H3V4h18v2h-1l-5 7.5V22H9v-8.5zM6.404 6L11 12.894V20h2v-7.106L17.596 6H6.404z"/></symbol><symbol viewBox="0 0 24 24" id="tools-line"><path fill="none" d="M0 0h24v24H0z"/><path d="M5.33 3.271a3.5 3.5 0 0 1 4.254 4.963l10.709 10.71-1.414 1.414-10.71-10.71a3.502 3.502 0 0 1-4.962-4.255L5.444 7.63a1.5 1.5 0 1 0 2.121-2.121L5.329 3.27zm10.367 1.884l3.182-1.768 1.414 1.414-1.768 3.182-1.768.354-2.12 2.121-1.415-1.414 2.121-2.121.354-1.768zm-6.718 8.132l1.414 1.414-5.303 5.303a1 1 0 0 1-1.492-1.327l.078-.087 5.303-5.303z"/></symbol><symbol viewBox="0 0 24 24" id="checkbox-fill"><path fill="none" d="M0 0h24v24H0z"/><path d="M4 3h16a1 1 0 0 1 1 1v16a1 1 0 0 1-1 1H4a1 1 0 0 1-1-1V4a1 1 0 0 1 1-1zm7.003 13l7.07-7.071-1.414-1.414-5.656 5.657-2.829-2.829-1.414 1.414L11.003 16z"/></symbol><symbol viewBox="0 0 24 24" id="loader-5-line"><path fill="none" d="M0 0h24v24H0z"/><path d="M12 3a9 9 0 0 1 9 9h-2a7 7 0 0 0-7-7V3z"/></symbol></svg>